<?xml version="1.0" encoding="UTF-8"?>
<svg width="600" height="400" viewBox="0 0 600 400" xmlns="http://www.w3.org/2000/svg">
  <defs>
    <!-- Gradiente para as raízes -->
    <linearGradient id="rootGradient" x1="0%" y1="0%" x2="100%" y2="0%">
      <stop offset="0%" style="stop-color:currentColor;stop-opacity:0.1"/>
      <stop offset="50%" style="stop-color:currentColor;stop-opacity:0.3"/>
      <stop offset="100%" style="stop-color:currentColor;stop-opacity:0.1"/>
    </linearGradient>
    
    <!-- Padrão de circuito -->
    <pattern id="circuitPattern" x="0" y="0" width="50" height="50" patternUnits="userSpaceOnUse">
      <path d="M10 25h30 M25 10v30" stroke="currentColor" stroke-width="0.5" opacity="0.2"/>
      <circle cx="25" cy="25" r="2" fill="currentColor" opacity="0.3"/>
    </pattern>
  </defs>

  <!-- Raízes principais do mangue -->
  <g stroke="currentColor" fill="none" stroke-width="1.5">
    <!-- Raiz central -->
    <path d="M300 400 C300 300, 300 250, 300 200
             C300 150, 250 100, 200 150
             C150 200, 100 150, 150 100" 
          stroke="currentColor" fill="none" opacity="0.3"/>
    
    <!-- Raiz direita -->
    <path d="M300 400 C300 300, 350 250, 400 200
             C450 150, 500 200, 450 100" 
          stroke="currentColor" fill="none" opacity="0.3"/>
    
    <!-- Raízes menores à esquerda -->
    <path d="M300 350 C250 300, 200 350, 150 300" opacity="0.2"/>
    <path d="M300 300 C270 250, 220 280, 180 250" opacity="0.2"/>
    
    <!-- Raízes menores à direita -->
    <path d="M300 320 C350 280, 380 300, 420 270" opacity="0.2"/>
    <path d="M300 280 C330 230, 370 260, 400 220" opacity="0.2"/>
  </g>

  <!-- Nós de conexão (representando a junção entre natureza e tecnologia) -->
  <g>
    <circle cx="300" cy="200" r="4" fill="currentColor" opacity="0.5"/>
    <circle cx="200" cy="150" r="3" fill="currentColor" opacity="0.4"/>
    <circle cx="400" cy="200" r="3" fill="currentColor" opacity="0.4"/>
    <circle cx="150" cy="100" r="2" fill="currentColor" opacity="0.3"/>
    <circle cx="450" cy="100" r="2" fill="currentColor" opacity="0.3"/>
  </g>

  <!-- Linhas de circuito integradas às raízes -->
  <g stroke="currentColor" stroke-width="0.5" opacity="0.2">
    <!-- Conexões horizontais -->
    <path d="M150 100 H450" stroke-dasharray="5,5"/>
    <path d="M200 150 H400" stroke-dasharray="4,4"/>
    <path d="M180 250 H400" stroke-dasharray="3,3"/>
    
    <!-- Conexões verticais -->
    <path d="M300 200 V350" stroke-dasharray="4,4"/>
    <path d="M200 150 V300" stroke-dasharray="3,3"/>
    <path d="M400 200 V320" stroke-dasharray="3,3"/>
  </g>

  <!-- Pequenos elementos de circuito -->
  <g fill="currentColor" opacity="0.2">
    <rect x="0" y="0" width="600" height="400" fill="url(#circuitPattern)"/>
  </g>
</svg>
