<?xml version="1.0" encoding="UTF-8"?>
<svg width="200" height="200" viewBox="0 0 200 200" xmlns="http://www.w3.org/2000/svg">
  <defs>
    <!-- Gradiente para os nós -->
    <radialGradient id="nodeGlow" cx="50%" cy="50%" r="50%" fx="50%" fy="50%">
      <stop offset="0%" style="stop-color:currentColor;stop-opacity:0.3"/>
      <stop offset="100%" style="stop-color:currentColor;stop-opacity:0"/>
    </radialGradient>
  </defs>

  <!-- Grade de pontos e conexões -->
  <g stroke="currentColor" fill="none">
    <!-- Pontos da primeira camada -->
    <circle cx="30" cy="40" r="4" fill="url(#nodeGlow)"/>
    <circle cx="30" cy="100" r="4" fill="url(#nodeGlow)"/>
    <circle cx="30" cy="160" r="4" fill="url(#nodeGlow)"/>
    
    <!-- Pontos da camada intermediária -->
    <circle cx="100" cy="70" r="4" fill="url(#nodeGlow)"/>
    <circle cx="100" cy="130" r="4" fill="url(#nodeGlow)"/>
    
    <!-- Pontos da última camada -->
    <circle cx="170" cy="40" r="4" fill="url(#nodeGlow)"/>
    <circle cx="170" cy="100" r="4" fill="url(#nodeGlow)"/>
    <circle cx="170" cy="160" r="4" fill="url(#nodeGlow)"/>

    <!-- Conexões da primeira para a segunda camada -->
    <path d="M30 40 L100 70 M30 40 L100 130" stroke-width="0.5" opacity="0.3"/>
    <path d="M30 100 L100 70 M30 100 L100 130" stroke-width="0.5" opacity="0.3"/>
    <path d="M30 160 L100 70 M30 160 L100 130" stroke-width="0.5" opacity="0.3"/>

    <!-- Conexões da segunda para a última camada -->
    <path d="M100 70 L170 40 M100 70 L170 100 M100 70 L170 160" stroke-width="0.5" opacity="0.3"/>
    <path d="M100 130 L170 40 M100 130 L170 100 M100 130 L170 160" stroke-width="0.5" opacity="0.3"/>
  </g>
</svg>
